# xmcd CD database file
#
# Track frame offsets:
#	150
#	16900
#	32400
#	46125
#	61188
#	81288
#	97988
#	112375
#	124800
#	138763
#	151338
#	168913
#	183713
#	201613
#	215638
#	230238
#	246225
#	261050
#	275723
#	289925
#	307260
#	322110
#	337600
#
# Disc length: 4723 seconds
#
# Revision: 0
# Processed by: cddbd v1.4PL0 Copyright (c) Steve Scherf et al.
# Submitted via: CDex 1.50beta8
#
DISCID=5d127117
DTITLE=Glenn Miller - Glenn Miller Forever
DYEAR=1900
DGENRE=Jazz
TTITLE0=Moonlight Serenade
TTITLE1=At Last
TTITLE2=A String Of Pearls
TTITLE3=Pennsylvania 6-5000
TTITLE4=St. Louis Blues March
TTITLE5=Chattanooga Choo Choo
TTITLE6=Song Of The Volga Boatmen
TTITLE7=Elmer's Tune
TTITLE8=The American Patrol
TTITLE9=Runnin' Wild
TTITLE10=Serenade In Blue
TTITLE11=Little Brown Jug
TTITLE12=Over The Rainbow
TTITLE13=Everybody Loves My Baby
TTITLE14=Rhapsody In Blue
TTITLE15=Sunrise Serenade
TTITLE16=Moonlight Cocktail
TTITLE17=Bugle Call Rag
TTITLE18=Adios
TTITLE19=Tuxedo Junction
TTITLE20=Danny Boy
TTITLE21=In The Mood
TTITLE22=Moonlight Serenade (Part 2)
EXTD=
EXTT0=
EXTT1=
EXTT2=
EXTT3=
EXTT4=
EXTT5=
EXTT6=
EXTT7=
EXTT8=
EXTT9=
EXTT10=
EXTT11=
EXTT12=
EXTT13=
EXTT14=
EXTT15=
EXTT16=
EXTT17=
EXTT18=
EXTT19=
EXTT20=
EXTT21=
EXTT22=
PLAYORDER=
